SplineFontDB: 3.2
FontName: CNOCSans-Semibold
FullName: CNOC Sans
FamilyName: CNOCSans
Weight: Semibold
Copyright: Copyright (c) 2023, OrangeCloud & Kevinkesager
UComments: "2023-9-30: Created with FontForge (http://fontforge.org)"
Version: 000.002beta
ItalicAngle: 0
UnderlinePosition: -100
UnderlineWidth: 50
Ascent: 800
Descent: 200
InvalidEm: 0
LayerCount: 2
Layer: 0 0 "Back" 1
Layer: 1 0 "Fore" 0
XUID: [1021 259 -292963172 10689]
OS2Version: 0
OS2_WeightWidthSlopeOnly: 0
OS2_UseTypoMetrics: 1
CreationTime: 1696059784
ModificationTime: 1696176041
OS2TypoAscent: 0
OS2TypoAOffset: 1
OS2TypoDescent: 0
OS2TypoDOffset: 1
OS2TypoLinegap: 0
OS2WinAscent: 0
OS2WinAOffset: 1
OS2WinDescent: 0
OS2WinDOffset: 1
HheadAscent: 0
HheadAOffset: 1
HheadDescent: 0
HheadDOffset: 1
OS2Vendor: 'PfEd'
MarkAttachClasses: 1
DEI: 91125
Encoding: ISO8859-1
UnicodeInterp: none
NameList: AGL For New Fonts
DisplaySize: -48
AntiAlias: 1
FitToEm: 0
WinInfo: 0 19 14
BeginPrivate: 0
EndPrivate
Grid
-1000 607 m 0
 2000 607 l 1024
  Named: "+XA9RmQAA"
EndSplineSet
TeXData: 1 0 0 346030 173015 115343 634975 1048576 115343 783286 444596 497025 792723 393216 433062 380633 303038 157286 324010 404750 52429 2506097 1059062 262144
BeginChars: 256 31

StartChar: A
Encoding: 65 65 0
Width: 703
Flags: HW
LayerCount: 2
Fore
SplineSet
209.010742188 191.814453125 m 1
 143.01953125 -5.64453125 l 1025
143.01953125 -5.64453125 m 1
 12 -5 l 1
 292.999023438 768 l 1
 410 768 l 1
 691 -5 l 1
 566.596679688 -5.64453125 l 1
 494.576171875 191.814453125 l 1
 209.010742188 191.814453125 l 1025
348.185546875 612.578125 m 1
 248.185546875 308.75390625 l 1
 455.40234375 308.75390625 l 1
 354.37109375 612.579101562 l 1
 348.185546875 612.578125 l 1025
EndSplineSet
EndChar

StartChar: x
Encoding: 120 120 1
Width: 672
Flags: HW
LayerCount: 2
Fore
SplineSet
51.6982421875 607.559570312 m 1
 247.62890625 328.1796875 l 1
 24.6513671875 0 l 1
 188.03125 0 l 1
 347.287109375 214.846679688 l 1
 492.651367188 -11 l 5
 672.651367188 -9 l 5
 450.50390625 322.90625 l 1
 626.495117188 607.559570312 l 25
 458.755859375 607.559570312 l 25
 353.09765625 439.310546875 l 1
 233.651367188 607 l 25
 51.6982421875 607.559570312 l 1
EndSplineSet
EndChar

StartChar: X
Encoding: 88 88 2
Width: 781
Flags: HW
LayerCount: 2
Fore
SplineSet
1 839 m 25
 256 455 l 25
 0 0 l 25
 198 0 l 29
 386 299 l 29
 572 0 l 29
 782 0 l 29
 499 455 l 29
 745 849 l 29
 547 849 l 25
 382 610 l 25
 220 839 l 25
 1 839 l 25
EndSplineSet
EndChar

StartChar: o
Encoding: 111 111 3
Width: 609
Flags: HW
LayerCount: 2
Fore
SplineSet
211.76171875 304.940429688 m 0
 211.76171875 199.885742188 257.010742188 113.782226562 340.208984375 113.782226562 c 0
 427.892578125 113.782226562 467.462890625 200.650390625 467.462890625 305.705078125 c 0
 467.462890625 405.755859375 423.40625 495.155273438 340.208984375 495.155273438 c 0
 257.010742188 495.155273438 211.76171875 409.995117188 211.76171875 304.940429688 c 0
75.8525390625 304.8828125 m 0
 75.8525390625 510.626953125 187.193359375 623.780273438 342.09375 623.780273438 c 0
 496.994140625 623.780273438 605.860351562 502.323242188 605.860351562 306.379882812 c 0
 605.860351562 100.63671875 506.294921875 -14.013671875 342.09375 -14.013671875 c 0
 187.193359375 -14.013671875 75.8525390625 99.1396484375 75.8525390625 304.8828125 c 0
EndSplineSet
EndChar

StartChar: O
Encoding: 79 79 4
Width: 696
Flags: HW
LayerCount: 2
Fore
SplineSet
164.145507812 392.466796875 m 4
 164.145507812 246.54296875 229.961914062 126.943359375 350.9765625 126.943359375 c 4
 478.515625 126.943359375 536.073242188 247.60546875 536.073242188 393.528320312 c 4
 536.073242188 532.501953125 471.991210938 656.680664062 350.9765625 656.680664062 c 4
 229.961914062 656.680664062 164.145507812 538.390625 164.145507812 392.466796875 c 4
0.4677734375 392.818359375 m 0
 0.4677734375 662.424804688 146.369140625 810.701171875 349.349609375 810.701171875 c 0
 552.33203125 810.701171875 694.990234375 651.543945312 694.990234375 394.779296875 c 0
 694.990234375 125.173828125 564.51953125 -25.0634765625 349.349609375 -25.0634765625 c 0
 146.369140625 -25.0634765625 0.4677734375 123.2109375 0.4677734375 392.818359375 c 0
EndSplineSet
EndChar

StartChar: n
Encoding: 110 110 5
Width: 577
Flags: HW
VStem: 70.0201 190<182.1 607> 434.021 196<117.6 454.951> 444.021 184<0 274.4>
LayerCount: 2
Fore
SplineSet
307.01953125 480 m 4xc0
 336.01953125 479 403.241210938 461.711914062 405.01953125 392 c 6xc0
 415.01953125 0 l 5
 570.01953125 2 l 5xa0
 564.01953125 450 l 6
 564.590820312 584.900390625 425.233398438 643.303710938 344.01953125 613 c 4
 277.01953125 588 239.01953125 566 184.01953125 532 c 5
 172.01953125 396 l 5
 210.01953125 404 267.03125 481.37890625 307.01953125 480 c 4xc0
204.01953125 627 m 5
 60.01953125 617 l 5
 60.01953125 0 l 5
 210.01953125 0 l 5
 220.01953125 607 l 6
 204.01953125 627 l 5
EndSplineSet
EndChar

StartChar: v
Encoding: 118 118 6
Width: 620
Flags: HW
LayerCount: 2
Fore
SplineSet
298.27734375 233 m 17
 169.142578125 617 l 1
 17.142578125 617 l 1
 235.633789062 0 l 1
 375.81640625 0 l 21
 610.142578125 617 l 1
 456.403320312 617 l 1
 325.451171875 233 l 9
 298.27734375 233 l 17
375.142578125 0 m 1053
EndSplineSet
EndChar

StartChar: i
Encoding: 105 105 7
Width: 207
Flags: HW
LayerCount: 2
Fore
SplineSet
57.142578125 800 m 1
 207.142578125 800 l 1
 207.142578125 650 l 1
 57.142578125 650 l 1
 57.142578125 800 l 1
207.142578125 0 m 21
 57.142578125 0 l 5
 57.142578125 567 l 5
 207.142578125 567 l 5
 207.142578125 0 l 21
EndSplineSet
EndChar

StartChar: d
Encoding: 100 100 8
Width: 598
Flags: HW
LayerCount: 2
Fore
SplineSet
479.478515625 12.453125 m 5
 447.372070312 -4.2890625 398.897460938 -32.896484375 353.833007812 -32.896484375 c 4
 198.932617188 -32.896484375 87.591796875 80.2568359375 87.591796875 286 c 4
 87.591796875 491.744140625 188.932617188 634.897460938 343.833007812 634.897460938 c 4
 384.791992188 634.897460938 440.934570312 616.37890625 471.943359375 600.223632812 c 5
 469.739257812 772.1171875 l 5
 485.739257812 792.1171875 l 5
 598.739257812 792.1171875 l 6
 598.739257812 -19.8828125 l 5
 484.739257812 -29.8828125 l 5
 479.478515625 12.453125 l 5
475.891601562 199.22265625 m 13
 473.497070312 425.9921875 l 5
 454.216796875 481.815429688 400.219726562 491.272460938 344.948242188 491.272460938 c 4
 261.75 491.272460938 222.500976562 391.112304688 222.500976562 286.057617188 c 4
 222.500976562 181.002929688 270.75 109.899414062 353.948242188 109.899414062 c 4
 413.713867188 109.899414062 458.125976562 140.256835938 475.891601562 199.22265625 c 13
EndSplineSet
EndChar

StartChar: a
Encoding: 97 97 9
Width: 573
Flags: HW
LayerCount: 2
Fore
SplineSet
432.049804688 36.453125 m 1
 399.943359375 19.7109375 351.46875 -8.896484375 306.404296875 -8.896484375 c 0
 151.50390625 -8.896484375 40.1630859375 94.2568359375 40.1630859375 300 c 0
 40.1630859375 505.744140625 141.50390625 640.897460938 296.404296875 640.897460938 c 0
 337.36328125 640.897460938 398.505859375 596.37890625 429.514648438 580.223632812 c 1
 427.310546875 598.1171875 l 1
 443.310546875 618.1171875 l 1
 571.310546875 611.1171875 l 2
 571.310546875 4.1171875 l 1
 437.310546875 -5.8828125 l 1
 432.049804688 36.453125 l 1
441.462890625 218.22265625 m 9
 439.068359375 418.9921875 l 1
 419.788085938 474.815429688 363.163085938 518 299.51953125 507.272460938 c 0
 198.579101562 490.2578125 170.072265625 405.112304688 170.072265625 300.057617188 c 0
 170.072265625 195.002929688 223.321289062 118.899414062 306.51953125 118.899414062 c 0
 366.28515625 118.899414062 423.697265625 159.256835938 441.462890625 218.22265625 c 9
EndSplineSet
EndChar

StartChar: e
Encoding: 101 101 10
Width: 577
Flags: HW
HStem: 395.058 100.097<277.738 372.572>
LayerCount: 2
Fore
SplineSet
560.078125 137.221679688 m 6
 571.640625 131.280273438 493.928710938 -25.01953125 318.422851562 -13 c 4
 163.884765625 -2.416015625 58.2646484375 136.375976562 74.671875 341.463867188 c 4
 91.0791015625 546.552734375 214.640625 633.348632812 369.047851562 620.99609375 c 4
 597.318359375 602.734375 579.934570312 310.189453125 579.934570312 310.189453125 c 6
 562.310546875 290.532226562 l 5
 206.513671875 291.274414062 l 5
 193.258789062 227.279296875 242.276367188 121.270507812 334.438476562 113.138671875 c 4
 417.51171875 105.807617188 468.071289062 193.024414062 468.071289062 193.024414062 c 6
 560.078125 137.221679688 l 6
213.467773438 389.208007812 m 5
 445.139648438 386.96484375 l 5
 443.262695312 446.46484375 390.127929688 497.111328125 341.700195312 499.30859375 c 4
 290.28125 501.642578125 225.112304688 454.619140625 213.467773438 389.208007812 c 5
EndSplineSet
EndChar

StartChar: s
Encoding: 115 115 11
Width: 840
Flags: HW
LayerCount: 2
Fore
SplineSet
5 638 m 5
 335 638 l 5
 335 -40 l 5
 5 -40 l 5
 5 638 l 5
337.598632812 355.9375 m 0
 266.079101562 382.083984375 258.0546875 384.299804688 241.791992188 404.3046875 c 0
 204.733398438 449.888671875 243.071289062 519.061523438 309.797851562 518.87109375 c 0
 421.494140625 518.55078125 449.09765625 433.5078125 449.09765625 433.5078125 c 1
 533.556640625 482.927734375 l 1
 533.556640625 482.927734375 501.111328125 560.16015625 438.129882812 595.248046875 c 0
 378.247070312 628.610351562 274.96484375 631.908203125 204.5 597.494140625 c 0
 133.203125 562.674804688 119.515625 502.079101562 116.46875 445.862304688 c 0
 112.942382812 380.81640625 154.993164062 332.37109375 174.883789062 313.325195312 c 0
 207.75 281.854492188 290.053710938 250.42578125 358.05859375 227.4609375 c 0
 437.271484375 200.7109375 449.58203125 121.258789062 369.028320312 99.9169921875 c 0
 297.608398438 80.9951171875 243.985351562 107.779296875 185.51953125 183.459960938 c 1
 96.0615234375 137.48046875 l 1
 138.6875 62.8515625 207.48046875 -13.359375 322.959960938 -15.7724609375 c 0
 484.197265625 -19.142578125 555.137695312 81.2548828125 545.62109375 190.895507812 c 0
 536.846679688 291.984375 393.124023438 335.637695312 337.598632812 355.9375 c 0
EndSplineSet
EndChar

StartChar: r
Encoding: 114 114 12
Width: 497
Flags: HW
LayerCount: 2
Fore
SplineSet
206.94140625 388.431640625 m 1
 182.036132812 504.14453125 l 1
 229.30078125 548.270507812 258.196289062 583 318.196289062 593 c 0
 460.606445312 616.735351562 471.010742188 542.598632812 501.904296875 436.494140625 c 1
 385.21484375 392.166015625 l 1
 369.677734375 440.048828125 312.015625 506.328125 206.94140625 388.431640625 c 1
224.196289062 0 m 1
 74.1962890625 0 l 1
 74.1962890625 607 l 1
 224.196289062 607 l 1
 224.196289062 0 l 1
EndSplineSet
EndChar

StartChar: f
Encoding: 102 102 13
Width: 402
Flags: HW
LayerCount: 2
Fore
SplineSet
87.7138671875 507 m 9
 414.713867188 507 l 1
 414.713867188 367 l 1
 87.7138671875 367 l 1
 87.7138671875 507 l 9
307.713867188 613 m 1
 307.713867188 0 l 1
 157.713867188 0 l 1
 157.713867188 659 l 1
 157.713867188 727 214.713867188 782 285.713867188 782 c 1
 382.713867188 772 l 1
 376.713867188 630 l 1
 324.713867188 630 l 1
 315.713867188 630 307.713867188 622 307.713867188 613 c 1
EndSplineSet
EndChar

StartChar: g
Encoding: 103 103 14
Width: 549
Flags: HW
LayerCount: 2
Fore
SplineSet
552.900390625 18.076171875 m 2
 553.19140625 -153.8828125 436.713867188 -206.59375 297.846679688 -206.104492188 c 0
 121.930664062 -205.484375 54.62890625 -71.82421875 66.19140625 -65.8828125 c 2
 158.198242188 -10.080078125 l 2
 158.198242188 -10.080078125 198.459960938 -77.943359375 281.831054688 -79.9658203125 c 0
 370.717773438 -82.1220703125 409.471679688 -53.236328125 420.93359375 21.1943359375 c 1
 423.54296875 88.8935546875 l 1
 392.534179688 72.73828125 336.391601562 54.2197265625 295.432617188 54.2197265625 c 0
 140.532226562 54.2197265625 59.19140625 167.373046875 59.19140625 333.1171875 c 0
 59.19140625 498.860351562 150.532226562 622.013671875 305.432617188 622.013671875 c 0
 350.497070312 622.013671875 398.971679688 593.40625 431.078125 576.6640625 c 1
 436.338867188 615 l 5
 550.338867188 599 l 1
 550.338867188 599 553.19140625 18.1171875 552.900390625 18.076171875 c 2
427.491210938 389.89453125 m 17
 419.725585938 428.860351562 365.313476562 489.217773438 305.547851562 489.217773438 c 0
 222.349609375 489.217773438 194.100585938 408.114257812 194.100585938 333.059570312 c 0
 194.100585938 258.004882812 213.349609375 187.844726562 296.547851562 187.844726562 c 0
 351.819335938 187.844726562 415.81640625 217.301757812 425.096679688 263.125 c 1
 427.491210938 389.89453125 l 17
EndSplineSet
EndChar

StartChar: c
Encoding: 99 99 15
Width: 531
Flags: HW
LayerCount: 2
Fore
SplineSet
515.125 462 m 5
 529.208007812 575.223632812 l 5
 498.19921875 591.37890625 429.056640625 625.897460938 358.09765625 625.897460938 c 4
 203.197265625 625.897460938 81.8564453125 500.744140625 81.8564453125 295 c 4
 81.8564453125 89.2568359375 213.197265625 -13.896484375 368.09765625 -13.896484375 c 4
 449.162109375 -13.896484375 498.63671875 14.7109375 530.743164062 31.453125 c 5
 519.856445312 143 l 5
 502.856445312 149 l 5
 478.466796875 104.102539062 421.825195312 112.010742188 368.212890625 113.899414062 c 4
 285.06640625 116.829101562 211.765625 190.002929688 211.765625 295.057617188 c 4
 211.765625 400.112304688 259.26171875 493.083984375 361.212890625 502.272460938 c 4
 426.600585938 508.166015625 477.416992188 498.640625 502.856445312 459.86328125 c 5
 515.125 462 l 5
EndSplineSet
EndChar

StartChar: l
Encoding: 108 108 16
Width: 127
Flags: HW
LayerCount: 2
Fore
SplineSet
41.5234375 169 m 5
 46.5234375 802 l 5
 -103.4765625 802 l 5
 -108.4765625 123 l 5
 -108.4765625 55 -51.4765625 0 19.5234375 0 c 5
 116.5234375 0 l 5
 106.5234375 152 l 5
 58.5234375 152 l 5
 49.5234375 152 41.5234375 160 41.5234375 169 c 5
EndSplineSet
EndChar

StartChar: u
Encoding: 117 117 17
Width: 559
Flags: HW
LayerCount: 2
Fore
SplineSet
312.493164062 127 m 0xc0
 283.493164062 128 216.271484375 145.288085938 214.493164062 215 c 2xc0
 219.493164062 607 l 1
 84.4931640625 605 l 5xa0
 75.4931640625 157 l 6
 74.921875 22.099609375 194.279296875 -36.3037109375 275.493164062 -6 c 0
 342.493164062 19 380.493164062 41 435.493164062 75 c 1
 447.493164062 211 l 1
 409.493164062 203 352.481445312 125.62109375 312.493164062 127 c 0xc0
415.493164062 -20 m 1
 544.493164062 -10 l 1
 549.493164062 607 l 1
 409.493164062 607 l 1
 399.493164062 0 l 2
 415.493164062 -20 l 1
EndSplineSet
EndChar

StartChar: C
Encoding: 67 67 18
Width: 659
Flags: HW
LayerCount: 2
Fore
SplineSet
631.512695312 589.459960938 m 1
 649.540039062 731.510742188 l 1
 609.845703125 751.779296875 521.336914062 795.084960938 430.501953125 795.084960938 c 0
 232.213867188 795.084960938 76.8857421875 638.068359375 76.8857421875 379.94140625 c 0
 76.8857421875 121.81640625 245.014648438 -7.599609375 443.302734375 -7.599609375 c 0
 547.07421875 -7.599609375 610.405273438 28.291015625 651.505859375 49.2958984375 c 1
 637.569335938 189.2421875 l 1
 615.807617188 196.770507812 l 1
 584.586914062 140.44140625 512.079101562 150.36328125 443.450195312 152.733398438 c 0
 337.014648438 156.409179688 243.182617188 248.212890625 243.182617188 380.013671875 c 0
 243.182617188 511.815429688 303.982421875 628.458007812 434.489257812 639.985351562 c 0
 518.192382812 647.379882812 583.243164062 635.4296875 615.807617188 586.779296875 c 1
 631.512695312 589.459960938 l 1
EndSplineSet
EndChar

StartChar: b
Encoding: 98 98 19
Width: 585
Flags: HW
LayerCount: 2
Fore
SplineSet
204.827148438 12.453125 m 5
 236.93359375 -4.2890625 285.408203125 -32.896484375 330.47265625 -32.896484375 c 4
 485.373046875 -32.896484375 600.713867188 80.2568359375 600.713867188 286 c 4
 600.713867188 491.744140625 499.373046875 634.897460938 344.47265625 634.897460938 c 4
 303.513671875 634.897460938 247.37109375 616.37890625 216.362304688 600.223632812 c 5
 216.56640625 772.1171875 l 5
 200.56640625 792.1171875 l 5
 87.56640625 792.1171875 l 6
 85.56640625 -19.8828125 l 5
 199.56640625 -29.8828125 l 5
 204.827148438 12.453125 l 5
212.4140625 199.22265625 m 13
 214.80859375 425.9921875 l 5
 234.088867188 481.815429688 288.0859375 491.272460938 343.357421875 491.272460938 c 4
 426.555664062 491.272460938 465.8046875 391.112304688 465.8046875 286.057617188 c 4
 465.8046875 181.002929688 413.555664062 109.899414062 330.357421875 109.899414062 c 4
 270.591796875 109.899414062 230.1796875 140.256835938 212.4140625 199.22265625 c 13
EndSplineSet
EndChar

StartChar: k
Encoding: 107 107 20
Width: 624
Flags: HW
LayerCount: 2
Fore
SplineSet
113.478515625 429.310546875 m 1
 259.13671875 627.559570312 l 1
 422.875976562 627.559570312 l 25
 236.884765625 342.90625 l 5
 453.032226562 -8 l 1
 276.032226562 -8 l 1
 112.380859375 242.754882812 l 1
 111.380859375 -8 l 1
 -37.619140625 -8 l 1
 -37.619140625 793 l 9
 112.380859375 793 l 1
 113.478515625 429.310546875 l 1
EndSplineSet
EndChar

StartChar: m
Encoding: 109 109 21
Width: 1030
Flags: HW
LayerCount: 2
Fore
SplineSet
678.796875 480 m 0xc0
 707.796875 479 775.018554688 461.711914062 776.796875 392 c 2xc0
 786.796875 0 l 1
 941.796875 2 l 1xa0
 935.796875 450 l 2
 936.368164062 584.900390625 797.010742188 643.303710938 715.796875 613 c 0
 648.796875 588 610.796875 566 555.796875 532 c 1
 543.796875 396 l 1
 581.796875 404 638.80859375 481.37890625 678.796875 480 c 0xc0
348.796875 480 m 0xc0
 377.796875 479 445.018554688 461.711914062 446.796875 392 c 2xc0
 456.796875 0 l 1
 611.796875 2 l 1xa0
 605.796875 450 l 2
 606.368164062 584.900390625 467.010742188 643.303710938 385.796875 613 c 0
 318.796875 588 280.796875 566 225.796875 532 c 1
 213.796875 396 l 1
 251.796875 404 308.80859375 481.37890625 348.796875 480 c 0xc0
265.796875 627 m 1
 121.796875 617 l 1
 121.796875 0 l 1
 271.796875 0 l 1
 281.796875 607 l 2
 265.796875 627 l 1
EndSplineSet
EndChar

StartChar: p
Encoding: 112 112 22
Width: 594
Flags: HW
LayerCount: 2
Fore
SplineSet
214.3515625 595.546875 m 5
 246.458007812 612.2890625 294.932617188 640.896484375 339.997070312 640.896484375 c 4
 494.897460938 640.896484375 610.23828125 527.743164062 610.23828125 322 c 4
 610.23828125 116.255859375 508.897460938 -26.8974609375 353.997070312 -26.8974609375 c 4
 313.038085938 -26.8974609375 256.895507812 -8.37890625 225.88671875 7.7763671875 c 5
 226.090820312 -164.1171875 l 5
 210.090820312 -184.1171875 l 5
 97.0908203125 -184.1171875 l 6
 95.0908203125 627.8828125 l 5
 209.090820312 637.8828125 l 5
 214.3515625 595.546875 l 5
221.938476562 408.77734375 m 13
 224.333007812 182.0078125 l 5
 243.61328125 126.184570312 297.610351562 116.727539062 352.881835938 116.727539062 c 4
 436.080078125 116.727539062 475.329101562 216.887695312 475.329101562 321.942382812 c 4
 475.329101562 426.997070312 423.080078125 498.100585938 339.881835938 498.100585938 c 4
 280.116210938 498.100585938 239.704101562 467.743164062 221.938476562 408.77734375 c 13
EndSplineSet
EndChar

StartChar: q
Encoding: 113 113 23
Width: 585
Flags: HW
LayerCount: 2
Fore
SplineSet
466.600585938 589.546875 m 5
 434.494140625 606.2890625 386.01953125 634.896484375 340.955078125 634.896484375 c 4
 186.0546875 634.896484375 74.7138671875 521.743164062 74.7138671875 316 c 4
 74.7138671875 110.255859375 176.0546875 -32.8974609375 330.955078125 -32.8974609375 c 4
 371.9140625 -32.8974609375 428.056640625 -14.37890625 459.065429688 1.7763671875 c 5
 456.861328125 -170.1171875 l 5
 472.861328125 -190.1171875 l 5
 585.861328125 -190.1171875 l 6
 585.861328125 621.8828125 l 5
 471.861328125 631.8828125 l 5
 466.600585938 589.546875 l 5
463.013671875 402.77734375 m 13
 460.619140625 176.0078125 l 5
 441.338867188 120.184570312 387.341796875 110.727539062 332.0703125 110.727539062 c 4
 248.872070312 110.727539062 209.623046875 210.887695312 209.623046875 315.942382812 c 4
 209.623046875 420.997070312 257.872070312 492.100585938 341.0703125 492.100585938 c 4
 400.8359375 492.100585938 445.248046875 461.743164062 463.013671875 402.77734375 c 13
EndSplineSet
EndChar

StartChar: j
Encoding: 106 106 24
Width: 381
Flags: HW
LayerCount: 2
Fore
SplineSet
4.4599609375 -179.145507812 m 5
 243.327148438 -178.634765625 246.904296875 -172 246.61328125 -0.041015625 c 1
 246.61328125 566.958984375 l 17
 96.61328125 566.958984375 l 1
 96.61328125 -0.041015625 l 1
 95.904296875 -44 71.3310546875 -34.1630859375 9.4443359375 -34.0068359375 c 1
 4.4599609375 -179.145507812 l 5
96.61328125 799.958984375 m 1
 246.61328125 799.958984375 l 1
 246.61328125 649.958984375 l 1
 96.61328125 649.958984375 l 1
 96.61328125 799.958984375 l 1
EndSplineSet
EndChar

StartChar: h
Encoding: 104 104 25
Width: 606
Flags: HW
LayerCount: 2
Fore
SplineSet
335.590820312 480 m 0xc0
 364.590820312 479 431.8125 461.711914062 433.590820312 392 c 2xc0
 443.590820312 0 l 1
 598.590820312 2 l 1xa0
 592.590820312 450 l 2
 593.162109375 584.900390625 453.8046875 643.303710938 372.590820312 613 c 0
 305.590820312 588 267.590820312 566 212.590820312 532 c 1
 200.590820312 396 l 1
 238.590820312 404 295.602539062 481.37890625 335.590820312 480 c 0xc0
217.590820312 797 m 1
 88.5908203125 787 l 1
 88.5908203125 0 l 1
 238.590820312 0 l 1
 233.590820312 777 l 2
 217.590820312 797 l 1
EndSplineSet
EndChar

StartChar: t
Encoding: 116 116 26
Width: 97
Flags: HW
LayerCount: 2
Fore
SplineSet
-203.047851562 305 m 9
 83.9521484375 305 l 5
 83.9521484375 435 l 5
 -203.047851562 435 l 1
 -203.047851562 305 l 9
6.9521484375 169 m 1
 6.9521484375 602 l 1
 -133.047851562 602 l 1
 -133.047851562 123 l 1
 -133.047851562 55 -86.0478515625 0 -15.0478515625 0 c 1
 71.9521484375 0 l 1
 75.9521484375 152 l 1
 23.9521484375 152 l 1
 14.9521484375 152 6.9521484375 160 6.9521484375 169 c 1
EndSplineSet
EndChar

StartChar: w
Encoding: 119 119 27
Width: 1024
Flags: HW
LayerCount: 2
Fore
SplineSet
542 607 m 1
 562.591796875 510.3984375 584.250976562 414.193359375 610.134765625 313 c 5
 627.30859375 313 l 5
 728.260742188 617 l 1
 862 617 l 1
 687.673828125 -5 l 1
 577.491210938 -5 l 1
 497.890625 290.885742188 l 1
 397.673828125 0 l 1
 307.491210938 0 l 1
 129 617 l 1
 261 617 l 1
 370.134765625 303 l 1
 387.30859375 303 l 1
 438.260742188 607 l 1
 542 607 l 1
EndSplineSet
EndChar

StartChar: W
Encoding: 87 87 28
Width: 1054
Flags: HW
LayerCount: 2
Fore
SplineSet
487 0 m 1049
877 -5 m 1053
370.134765625 433 m 1
 291 797 l 1
 89 797 l 1
 257.491210938 0 l 1
 487.673828125 0 l 1
 576.890625 350.885742188 l 1
 667.491210938 -5 l 5
 877.673828125 -5 l 5
 1042 797 l 1
 848.260742188 797 l 1
 767.30859375 433 l 1
 720.134765625 433 l 1
 672 787 l 1
 480 787 l 1
 478.260742188 787 l 1
 417.30859375 433 l 1
 370.134765625 433 l 1
EndSplineSet
EndChar

StartChar: y
Encoding: 121 121 29
Width: 663
Flags: HW
LayerCount: 2
Fore
SplineSet
544.528320312 607.559570312 m 9
 390.7890625 607.559570312 l 1
 312.552734375 389.310546875 l 1
 235.708984375 607 l 25
 63.7314453125 607.559570312 l 1
 235.072265625 208.1796875 l 1
 153.481445312 -40 l 1
 326.861328125 -40 l 1
 544.528320312 607.559570312 l 9
EndSplineSet
EndChar

StartChar: z
Encoding: 122 122 30
Width: 529
Flags: HW
LayerCount: 2
Fore
SplineSet
42.4931640625 0 m 1
 42.4921875 0 486 3 486 3 c 1
 486 153 l 1
 259.40234375 150 l 1
 488.328125 557.0390625 l 1
 468.764648438 605.559570312 l 1
 47.953125 602.559570312 l 1
 47.953125 452.559570312 l 1
 248.045898438 455.559570312 l 1
 15.5146484375 46.62890625 l 1
 42.4931640625 0 l 1
486 153 m 1025
15.5147038444 46.6289069356 m 1025
EndSplineSet
EndChar
